<?xml version="1.0"?>
<svg width="75" height="75" xmlns="http://www.w3.org/2000/svg" xmlns:svg="http://www.w3.org/2000/svg">
 <g class="layer">
  <rect fill="#4667a6" height="75.23" id="svg_44" stroke="#000000" stroke-opacity="0" width="75.23" x="-0.09" y="-0.17"/>
  <path d="m46.08,-25.59c-1.58,1.04 -2.73,1.41 -4.35,1.96c-1,0.34 -2.68,0.98 -3.85,1.56c-1.1,0.55 -2.62,1.59 -3.65,2.28c-1.21,0.81 -2.43,1.47 -3.76,2.45c-0.91,0.66 -1.94,1.7 -2.75,2.95c-0.86,1.33 -1.25,2.23 -1.96,3.78c-0.58,1.27 -1.01,2.25 -1.52,3.96c-0.32,1.04 -0.66,2.49 -0.97,3.98c-0.24,1.15 -0.44,2.76 -0.5,4.01c-0.06,1.29 -0.08,2.62 -0.13,3.98c-0.05,1.44 -0.09,2.48 -0.03,4.2c0.04,1.24 0.13,2.51 0.31,3.77c0.25,1.78 0.49,2.85 1.02,4.26c0.33,0.9 1.23,2.67 1.75,3.58c0.81,1.41 1.41,2.35 2.43,3.68c0.67,0.88 1.79,2.11 2.59,2.87c1.21,1.14 2.55,2.17 3.51,2.82c0.99,0.67 2.61,1.65 3.78,2.28c1.23,0.66 2.55,1.28 3.24,1.58c2.16,0.93 2.93,1.21 4.52,1.75c0.82,0.28 2.51,0.79 3.38,1.02c2.69,0.71 3.63,0.88 4.57,1.05c1.92,0.36 2.9,0.5 3.89,0.61c3.02,0.34 4.05,0.36 5.09,0.38c2.09,0.05 3.15,0.01 4.22,-0.04c1.07,-0.05 2.16,-0.08 5.43,-0.52c1.11,-0.15 2.22,-0.35 3.33,-0.57c1.13,-0.22 2.26,-0.47 3.39,-0.76c3.48,-0.9 4.64,-1.31 5.81,-1.7c1.18,-0.39 2.36,-0.81 3.53,-1.24c1.17,-0.43 2.34,-0.88 3.48,-1.34c2.26,-0.91 3.36,-1.37 4.43,-1.84c1.06,-0.46 3.14,-1.4 4.15,-1.89c1.01,-0.48 2,-0.97 3.94,-2.02c0.97,-0.52 2.84,-1.62 3.74,-2.17c0.88,-0.53 1.72,-1.06 3.29,-2.05c1.99,-1.26 3.03,-1.94 3.89,-2.48l1.47,-0.93" fill="#fcdd76" id="svg_32" stroke="#000000" transform="matrix(1 0 0 1 0 0)"/>
  <path d="m52.14,-20.95c-1.07,0.78 -1.84,1.06 -2.93,1.48c-0.67,0.26 -1.8,0.74 -2.59,1.18c-0.74,0.41 -1.76,1.2 -2.45,1.72c-0.81,0.61 -1.63,1.11 -2.53,1.84c-0.61,0.5 -1.3,1.28 -1.85,2.23c-0.58,1 -0.84,1.68 -1.31,2.85c-0.39,0.96 -0.68,1.7 -1.02,2.99c-0.21,0.79 -0.45,1.87 -0.66,3c-0.16,0.87 -0.3,2.08 -0.34,3.02c-0.04,0.98 -0.05,1.98 -0.09,3c-0.03,1.09 -0.06,1.87 -0.02,3.16c0.03,0.93 0.09,1.89 0.21,2.84c0.17,1.34 0.33,2.15 0.68,3.21c0.22,0.68 0.83,2.01 1.18,2.7c0.55,1.06 0.95,1.77 1.63,2.77c0.45,0.66 1.2,1.59 1.74,2.16c0.81,0.86 1.72,1.63 2.36,2.13c0.66,0.51 1.75,1.24 2.54,1.72c0.83,0.5 1.71,0.97 2.18,1.19c1.45,0.7 1.97,0.91 3.04,1.32c0.55,0.21 1.68,0.6 2.27,0.77c1.81,0.53 2.44,0.66 3.07,0.79c1.29,0.27 1.95,0.37 2.61,0.46c2.03,0.26 2.72,0.27 3.42,0.29c1.41,0.04 2.12,0.01 2.84,-0.03c0.72,-0.04 1.45,-0.06 3.65,-0.39c0.74,-0.11 1.49,-0.26 2.24,-0.43c0.76,-0.17 1.52,-0.35 2.28,-0.58c2.34,-0.68 3.12,-0.99 3.91,-1.28c0.79,-0.3 1.59,-0.61 2.38,-0.94c0.79,-0.33 1.57,-0.66 2.34,-1.01c1.52,-0.68 2.26,-1.04 2.98,-1.39c0.72,-0.35 2.11,-1.06 2.79,-1.42c0.68,-0.36 1.35,-0.73 2.65,-1.52c0.65,-0.39 1.91,-1.22 2.51,-1.63c0.59,-0.4 1.16,-0.8 2.21,-1.55c1.33,-0.95 2.04,-1.46 2.62,-1.87l0.99,-0.7" fill="#fcdd76" id="svg_31" stroke="#000000" transform="matrix(1 0 0 1 0 0)"/>
  <path d="m61.34,-17.95c-0.78,0.57 -1.34,0.77 -2.13,1.07c-0.49,0.19 -1.31,0.53 -1.88,0.85c-0.54,0.3 -1.28,0.87 -1.79,1.24c-0.59,0.44 -1.19,0.8 -1.84,1.33c-0.45,0.36 -0.95,0.93 -1.35,1.61c-0.42,0.72 -0.61,1.22 -0.96,2.06c-0.28,0.69 -0.49,1.23 -0.75,2.16c-0.15,0.57 -0.33,1.36 -0.48,2.17c-0.12,0.63 -0.22,1.5 -0.24,2.19c-0.03,0.71 -0.04,1.43 -0.06,2.17c-0.02,0.79 -0.04,1.35 -0.01,2.29c0.02,0.68 0.07,1.37 0.15,2.05c0.12,0.97 0.24,1.55 0.5,2.32c0.16,0.49 0.6,1.46 0.86,1.95c0.4,0.77 0.69,1.28 1.19,2c0.33,0.48 0.87,1.15 1.27,1.57c0.59,0.62 1.25,1.18 1.72,1.54c0.48,0.37 1.28,0.9 1.85,1.24c0.6,0.36 1.25,0.7 1.58,0.86c1.06,0.51 1.44,0.66 2.22,0.95c0.4,0.15 1.23,0.43 1.66,0.56c1.32,0.38 1.78,0.48 2.24,0.57c0.94,0.19 1.42,0.27 1.9,0.33c1.48,0.18 1.99,0.19 2.49,0.21c1.03,0.03 1.54,0 2.07,-0.02c0.53,-0.03 1.06,-0.04 2.66,-0.28c0.54,-0.08 1.09,-0.19 1.63,-0.31c0.55,-0.12 1.11,-0.26 1.66,-0.42c1.7,-0.49 2.27,-0.72 2.85,-0.93c0.58,-0.21 1.16,-0.44 1.73,-0.68c0.57,-0.24 1.14,-0.48 1.71,-0.73c1.11,-0.49 1.64,-0.75 2.17,-1c0.52,-0.25 1.54,-0.76 2.03,-1.03c0.49,-0.26 0.98,-0.53 1.93,-1.1c0.47,-0.29 1.39,-0.88 1.83,-1.18c0.43,-0.29 0.84,-0.58 1.61,-1.12c0.97,-0.69 1.49,-1.06 1.91,-1.35l0.72,-0.5" fill="#fcdd76" id="svg_30" stroke="#000000" transform="matrix(1 0 0 1 0 0)"/>
  <path d="m-13.98,10.59c0.17,1.33 1.08,2.4 1.99,3.53c0.67,0.83 1.8,2.18 2.63,3.1c1.01,1.12 1.89,2.18 3.13,3.28c1.31,1.16 2.49,2 3.73,2.84c1.37,0.92 3.14,1.88 4.34,2.56c1.58,0.9 2.89,1.83 4.58,2.55c1.87,0.81 3.4,1.22 5.26,1.97c1.58,0.63 3.17,1.32 4.68,2.12c1.5,0.8 2.87,1.58 4.62,2.55c1.47,0.82 2.55,1.89 3.25,2.92c0.8,1.17 1.06,2.34 0.89,3.44c-0.16,1.06 -0.32,1.96 -0.91,3.18c-0.39,0.8 -1.21,1.98 -1.89,2.75c-0.89,1.01 -1.76,1.75 -2.72,2.78c-0.68,0.73 -1.67,1.64 -2.87,2.57c-0.97,0.75 -2.08,1.47 -3.2,2.04c-1.25,0.63 -2.63,1.33 -3.88,2.16c-1.13,0.75 -2.01,1.59 -3.17,2.41c-0.99,0.7 -2.34,1.37 -3.79,2.09l-1.15,0.5l-1.34,0.63l-1.25,0.61" fill="#1e2e4d" id="svg_33" stroke="#000000"/>
  <path d="m65.85,88.82c0.5,-1.01 0.96,-1.51 1.62,-2.23c0.4,-0.44 1.06,-1.23 1.48,-1.87c0.39,-0.6 0.86,-1.59 1.17,-2.26c0.37,-0.78 0.79,-1.48 1.18,-2.39c0.27,-0.62 0.48,-1.5 0.53,-2.46c0.05,-1.02 -0.02,-1.67 -0.11,-2.78c-0.08,-0.92 -0.15,-1.62 -0.38,-2.79c-0.14,-0.71 -0.39,-1.68 -0.66,-2.67c-0.21,-0.76 -0.57,-1.79 -0.91,-2.58c-0.34,-0.81 -0.72,-1.63 -1.09,-2.47c-0.39,-0.9 -0.67,-1.54 -1.2,-2.58c-0.38,-0.75 -0.79,-1.51 -1.24,-2.24c-0.64,-1.03 -1.07,-1.63 -1.74,-2.37c-0.43,-0.47 -1.39,-1.35 -1.91,-1.78c-0.82,-0.67 -1.39,-1.11 -2.28,-1.68c-0.59,-0.38 -1.51,-0.87 -2.13,-1.15c-0.94,-0.41 -1.91,-0.72 -2.58,-0.9c-0.69,-0.18 -1.78,-0.39 -2.56,-0.5c-0.81,-0.11 -1.65,-0.18 -2.08,-0.2c-1.35,-0.06 -1.82,-0.05 -2.77,0c-0.49,0.02 -1.49,0.11 -1.99,0.17c-1.55,0.2 -2.07,0.32 -2.6,0.44c-1.06,0.24 -1.6,0.38 -2.13,0.55c-1.61,0.51 -2.14,0.74 -2.66,0.97c-1.06,0.47 -1.59,0.74 -2.11,1.02c-0.52,0.29 -1.06,0.56 -2.57,1.6c-0.51,0.35 -1.01,0.74 -1.51,1.14c-0.5,0.4 -1,0.82 -1.48,1.27c-1.49,1.38 -1.95,1.9 -2.42,2.42c-0.48,0.52 -0.95,1.05 -1.42,1.6c-0.46,0.54 -0.92,1.09 -1.36,1.64c-0.87,1.09 -1.29,1.64 -1.69,2.18c-0.4,0.53 -1.17,1.6 -1.54,2.14c-0.37,0.53 -0.73,1.07 -1.4,2.17c-0.33,0.55 -0.96,1.66 -1.25,2.21c-0.29,0.53 -0.56,1.06 -1.06,2.04c-0.63,1.24 -0.96,1.91 -1.24,2.44l-0.47,0.91" fill="#1e2e4d" id="svg_35" stroke="#000000"/>
 </g>
</svg>
