<?xml version="1.0"?>
<svg width="200" height="120" xmlns="http://www.w3.org/2000/svg" xmlns:svg="http://www.w3.org/2000/svg" xmlns:xlink="http://www.w3.org/1999/xlink">
 <title>paws-step-3</title>
 <defs>
  <symbol height="20" id="svg_27" width="20" xmlns="http://www.w3.org/2000/svg">
   <path d="m4,9.46q-0.6,0 -1.03,-0.42q-0.43,-0.41 -0.43,-1.04q0,-0.6 0.42,-1.03q0.42,-0.43 1.04,-0.43q0.6,0 1.03,0.42q0.43,0.42 0.43,1.04q0,0.6 -0.42,1.03q-0.41,0.43 -1.04,0.43zm3.5,-3q-0.6,0 -1.03,-0.42q-0.43,-0.41 -0.43,-1.04q0,-0.6 0.42,-1.03q0.42,-0.43 1.04,-0.43q0.6,0 1.03,0.42q0.43,0.42 0.43,1.04q0,0.6 -0.42,1.03q-0.41,0.43 -1.04,0.43zm5,0q-0.6,0 -1.03,-0.42q-0.43,-0.41 -0.43,-1.04q0,-0.6 0.42,-1.03q0.42,-0.43 1.04,-0.43q0.6,0 1.03,0.42q0.43,0.42 0.43,1.04q0,0.6 -0.42,1.03q-0.41,0.43 -1.04,0.43zm3.5,3q-0.6,0 -1.03,-0.42q-0.43,-0.41 -0.43,-1.04q0,-0.6 0.42,-1.03q0.42,-0.43 1.04,-0.43q0.6,0 1.03,0.42q0.43,0.42 0.43,1.04q0,0.6 -0.42,1.03q-0.42,0.43 -1.04,0.43zm-10.06,8.02q-0.59,0 -0.98,-0.49q-0.4,-0.49 -0.4,-1.2q0,-0.89 0.64,-1.49q0.63,-0.59 1.22,-1.26q0.54,-0.64 0.96,-1.28q0.43,-0.64 0.89,-1.28q0.35,-0.44 0.77,-0.69q0.42,-0.25 0.96,-0.25q0.56,0 1.01,0.25q0.45,0.25 0.76,0.71q0.48,0.65 0.89,1.26q0.4,0.61 0.92,1.26q0.57,0.69 1.22,1.27q0.66,0.58 0.66,1.5q0,0.69 -0.41,1.18q-0.4,0.49 -1.01,0.49q-1.04,0 -2.02,-0.25q-0.98,-0.25 -2.02,-0.25q-1.04,0 -2.03,0.26q-0.99,0.26 -2.03,0.26z"/>
  </symbol>
 </defs>
 <g class="layer">
  <title>Layer 1</title>
  <use id="svg_33" transform="rotate(-142.079 181.2 83.6333) matrix(0.480027 0 0 0.442438 19.1758 41.3906)" x="327.53" xlink:href="#svg_27" y="84.97"/>
  <use id="svg_34" transform="rotate(-104.357 153.8 85.4333) matrix(0.480027 0 0 0.442438 19.1758 41.3906)" x="270.45" xlink:href="#svg_27" y="89.04"/>
  <use id="svg_35" transform="rotate(-24.6403 123.4 95.0333) matrix(-0.0867722 -0.472119 0.435149 -0.0799774 89.481 207.237)" x="207.12" xlink:href="#svg_27" y="110.73"/>
  <use id="svg_36" transform="rotate(-35.6011 92.7999 91.8333) matrix(0.480027 0 0 0.442438 19.1758 41.3906)" x="143.37" xlink:href="#svg_27" y="103.5"/>
  <use id="svg_37" transform="matrix(1 0 0 1 0 0) matrix(0.122118 -0.464234 0.427882 0.112555 33.6048 162.624)" x="141.71" xlink:href="#svg_27" y="28.91"/>
  <use id="svg_38" transform="rotate(-110.285 44.5999 89.2333) matrix(0.424027 -0.225005 0.207385 0.390823 -0.283685 58.8891)" x="42.96" xlink:href="#svg_27" y="97.62"/>
  <use id="svg_39" transform="matrix(0.232409 -0.420014 0.387124 0.21421 -24.3918 67.5758)" x="-14.74" xlink:href="#svg_27" y="101.84"/>
 </g>
</svg>
